<svg width="34" height="29" viewBox="0 0 34 29" fill="none" xmlns="http://www.w3.org/2000/svg">
<path d="M33.4593 3.29004C32.7038 3.62502 31.9196 3.88929 31.115 4.08061C32.0016 3.23806 32.6683 2.18421 33.0444 1.00793C33.1517 0.672117 32.787 0.381734 32.4837 0.561534C31.3643 1.22553 30.1585 1.72365 28.8998 2.04221C28.8267 2.0607 28.7514 2.07007 28.6758 2.07007C28.4465 2.07007 28.2236 1.98493 28.0482 1.83042C26.709 0.650066 24.9865 0 23.1982 0C22.4244 0 21.6431 0.120613 20.876 0.358523C18.4992 1.09571 16.6653 3.05627 16.0899 5.47517C15.874 6.38246 15.8156 7.29058 15.9161 8.17424C15.9276 8.27579 15.8796 8.34667 15.85 8.37991C15.798 8.43818 15.7243 8.47159 15.6478 8.47159C15.6393 8.47159 15.6305 8.47118 15.6218 8.47035C10.4191 7.98698 5.72755 5.48047 2.41132 1.41262C2.24221 1.20513 1.91792 1.23058 1.78314 1.46178C1.13373 2.57589 0.790545 3.85016 0.790545 5.14682C0.790545 7.13399 1.58891 9.00668 2.97567 10.3719C2.3925 10.2336 1.82807 10.0159 1.30375 9.72464C1.05009 9.58372 0.73799 9.76484 0.734425 10.055C0.698117 13.0071 2.42649 15.6338 5.01565 16.8167C4.96351 16.8179 4.91136 16.8185 4.85914 16.8185C4.44872 16.8185 4.03317 16.7789 3.62416 16.7007C3.3385 16.6462 3.09852 16.9172 3.18722 17.1941C4.02762 19.8178 6.28668 21.7518 8.99007 22.1909C6.74642 23.697 4.13364 24.4915 1.41425 24.4915L0.566479 24.491C0.305275 24.491 0.0843586 24.6612 0.0177935 24.9142C-0.0477768 25.1634 0.0730019 25.4263 0.295742 25.5559C3.36006 27.3392 6.85535 28.2817 10.4053 28.2817C13.5126 28.2817 16.4193 27.6651 19.0446 26.449C21.4513 25.3341 23.578 23.7404 25.3657 21.7122C27.0311 19.8229 28.3334 17.6418 29.2363 15.2297C30.097 12.9305 30.5519 10.4771 30.5519 8.13478V8.02321C30.5519 7.64711 30.722 7.29323 31.0187 7.05234C32.1449 6.138 33.1255 5.06168 33.9333 3.85331C34.1466 3.53425 33.8102 3.13436 33.4593 3.29004Z" fill="#76A9EA"/>
</svg>
