<svg width="74" height="74" viewBox="0 0 74 74" fill="none" xmlns="http://www.w3.org/2000/svg">
<circle cx="37" cy="37" r="37" fill="#ACBB15" fill-opacity="0.1"/>
<path d="M52.9334 32.181L49.7648 21.148C49.5357 20.3463 48.734 19.85 48.0086 20.0409L42.1676 21.7206C41.4423 21.9497 41.0223 22.7514 41.2514 23.5913L41.3278 23.7822C41.2896 23.7822 41.2514 23.7822 41.175 23.8203L32.6999 26.2254C31.8982 26.4545 31.44 27.3707 31.6691 28.2488L31.86 28.8978C31.8218 28.8978 31.7836 28.8978 31.7073 28.936L26.7062 30.3485C26.668 30.3485 26.6298 30.3867 26.5916 30.3867L26.5534 30.3103C26.3244 29.5086 25.4463 29.0505 24.6446 29.2414L22.125 29.9667C21.3233 30.1958 20.827 31.0357 21.056 31.8756L22.8885 38.1747C23.0794 38.8237 23.6902 39.2818 24.3774 39.2818C24.5301 39.2818 24.6446 39.2436 24.7973 39.2055L27.317 38.4801C27.6987 38.3656 28.0423 38.0983 28.2332 37.7548C28.4241 37.4112 28.4623 36.9912 28.3859 36.5713L28.3477 36.4949C28.3859 36.4949 28.4623 36.4949 28.5004 36.4567L33.5016 35.0442C33.5397 35.0442 33.5779 35.006 33.6543 35.006L33.8452 35.655C33.9979 36.1513 34.3033 36.5331 34.7232 36.724C34.456 37.1821 34.3033 37.6784 34.3033 38.2129C34.3033 39.5109 35.105 40.618 36.2121 41.0761L28.2332 52.3764C28.0042 52.6818 28.0805 53.1399 28.3859 53.3308C28.5004 53.4071 28.6532 53.4453 28.7677 53.4453C28.9967 53.4453 29.1876 53.3308 29.3403 53.1399L36.6702 42.8704V52.8345C36.6702 53.2162 36.9756 53.5216 37.3574 53.5216C37.7392 53.5216 38.0446 53.2162 38.0446 52.8345V43.1758L45.1836 53.2544C45.3363 53.4453 45.5272 53.5598 45.7562 53.5598C45.9089 53.5598 46.0235 53.5216 46.138 53.4453C46.4434 53.2162 46.5198 52.7963 46.2907 52.4909L38.3882 41.1906C39.6098 40.7707 40.4879 39.6254 40.4879 38.251C40.4879 37.2966 40.0297 36.4186 39.3426 35.8459L44.191 34.4716C44.2292 34.4716 44.2673 34.4334 44.3437 34.4334L44.42 34.6243C44.6109 35.3115 45.1836 35.7696 45.8326 35.7696C45.9471 35.7696 46.0616 35.7696 46.1762 35.7314L52.0172 34.0516C52.3989 33.9371 52.7044 33.6699 52.8571 33.2881C53.0098 32.9445 53.0479 32.5627 52.9334 32.181ZM27.0116 37.1058C27.0116 37.1439 26.9734 37.1439 26.9352 37.1821L24.4156 37.9075C24.3392 37.9075 24.2629 37.9075 24.2247 37.7929L22.4304 31.4938C22.3922 31.4175 22.4686 31.3411 22.5449 31.3029L25.1027 30.5776C25.1409 30.5776 25.2173 30.6157 25.2554 30.6921L25.7899 32.4864L25.9808 33.1736L27.0879 36.9912C27.0497 37.0676 27.0497 37.1058 27.0116 37.1058ZM33.0816 33.7844L28.0805 35.1969C28.0423 35.1969 27.8896 35.0824 27.8133 34.8152L27.0497 32.1428C26.9734 31.9137 27.0497 31.7229 27.0879 31.6847L32.089 30.2722C32.1272 30.2722 32.2799 30.3867 32.3563 30.6539L33.1198 33.2881V33.3263C33.1962 33.5553 33.1198 33.7462 33.0816 33.7844ZM37.3574 40.0072C36.403 40.0072 35.6395 39.2436 35.6395 38.2892C35.6395 37.3348 36.403 36.5713 37.3574 36.5713C38.3118 36.5713 39.0753 37.3348 39.0753 38.2892C39.0753 39.2436 38.3118 40.0072 37.3574 40.0072ZM43.8856 33.0972C43.8856 33.1354 43.8474 33.1354 43.8474 33.1736L35.3722 35.5787C35.2959 35.5787 35.2195 35.5023 35.1432 35.3496L34.456 32.9445L33.6925 30.2722L33.0053 27.9052C32.9671 27.7143 33.0434 27.5998 33.0434 27.5998L41.5186 25.1947C41.5568 25.1947 41.6713 25.271 41.7477 25.4237L43.8856 32.83C43.9238 32.9445 43.8856 33.059 43.8856 33.0972ZM45.7944 34.3952C45.7562 34.3952 45.7562 34.357 45.7181 34.2807L45.2218 32.4864L43.0839 25.042L42.5876 23.2477C42.5494 23.1713 42.5876 23.095 42.5494 23.095L48.3522 21.4152C48.3522 21.4152 48.4286 21.4534 48.4286 21.5679L51.5972 32.6391C51.6354 32.7155 51.5972 32.7536 51.6354 32.7918L45.7944 34.3952Z" fill="#ACBB15"/>
</svg>
