<svg width="74" height="74" viewBox="0 0 74 74" fill="none" xmlns="http://www.w3.org/2000/svg">
<circle cx="37" cy="37" r="37" fill="#ACBB15" fill-opacity="0.1"/>
<path d="M52.9023 52.1959L45.4918 42.0907C45.4897 42.0879 45.4874 42.0854 45.4852 42.0827C45.4779 42.0731 45.4702 42.0638 45.4623 42.0548C45.458 42.05 45.4537 42.0453 45.4493 42.0407C45.4417 42.0327 45.4338 42.0251 45.4257 42.0177C45.4206 42.013 45.4155 42.0083 45.4103 42.0039C45.4021 41.9969 45.3936 41.9905 45.385 41.9841C45.3796 41.98 45.3743 41.9758 45.3686 41.972C45.3585 41.9652 45.3482 41.959 45.3377 41.9529C45.3332 41.9502 45.3289 41.9474 45.3244 41.9449C45.3091 41.9367 45.2935 41.9292 45.2775 41.9225C45.2742 41.9211 45.2707 41.9201 45.2672 41.9189C45.2542 41.9138 45.2411 41.9091 45.2277 41.9051C45.2227 41.9036 45.2175 41.9025 45.2125 41.9012C45.2004 41.898 45.1882 41.895 45.1759 41.8927C45.1702 41.8917 45.1645 41.891 45.1588 41.8901C45.1469 41.8884 45.1348 41.8869 45.1227 41.8859C45.1199 41.8857 45.117 41.8851 45.1142 41.8849C45.1109 41.8847 45.1075 41.885 45.1043 41.8849C45.0924 41.8844 45.0805 41.8844 45.0685 41.8849C45.0623 41.885 45.0561 41.8852 45.0499 41.8857C45.0384 41.8865 45.0269 41.8879 45.0153 41.8894C45.0087 41.8903 45.0022 41.8912 44.9957 41.8923C44.9922 41.8929 44.9887 41.8932 44.9851 41.8939C44.9772 41.8954 44.9697 41.8979 44.9619 41.8997C44.9557 41.9013 44.9495 41.9026 44.9435 41.9044C44.9311 41.9079 44.9191 41.9122 44.9072 41.9166C44.9027 41.9183 44.8982 41.9197 44.8937 41.9215C44.8788 41.9276 44.8643 41.9344 44.8502 41.9417C44.8489 41.9425 44.8474 41.943 44.846 41.9437C44.814 41.9609 44.7842 41.9812 44.757 42.0044C44.7541 42.0069 44.7515 42.0096 44.7486 42.0121C44.7383 42.0213 44.7284 42.0307 44.7189 42.0406C44.7175 42.042 44.7162 42.0431 44.7148 42.0445L41.0274 45.9954L33.4633 35.4896V30.0948H45.0844C45.2595 30.0948 45.4222 30.0041 45.5142 29.8551C45.6062 29.7062 45.6146 29.5202 45.5363 29.3636L43.6282 25.5474L45.5363 21.7313C45.6147 21.5747 45.6062 21.3887 45.5142 21.2398C45.4221 21.0907 45.2595 21 45.0844 21H32.9581C32.679 21 32.4528 21.2263 32.4528 21.5053V35.497L21.0876 52.2106C20.9823 52.3653 20.9712 52.5657 21.0589 52.7311C21.1464 52.8964 21.3183 52.9999 21.5054 52.9999H38.3457C38.3462 52.9999 38.3467 53.0001 38.3473 53.0001C38.348 53.0001 38.3485 52.9999 38.349 52.9999H47.1026C47.1034 52.9999 47.1041 53 47.1049 53C47.1055 53 47.1062 52.9999 47.1069 52.9999H52.4948C52.6852 52.9999 52.8594 52.8929 52.9455 52.7231C53.0316 52.5532 53.0149 52.3494 52.9023 52.1959ZM33.4633 22.0105H44.2669L42.6114 25.3214C42.5403 25.4636 42.5403 25.6311 42.6114 25.7733L44.2669 29.0841H33.4633V22.0105ZM38.7163 51.9894L37.2028 47.2597C37.1359 47.0505 36.9413 46.9085 36.7217 46.9085C36.3793 46.9085 36.1361 47.2417 36.2405 47.5677L37.6553 51.9894H22.4601L32.7928 36.7942L35.4528 45.1066C35.5197 45.3159 35.7143 45.4579 35.934 45.4579C36.2763 45.4579 36.5195 45.1247 36.4152 44.7986L34.4109 38.5354L44.0979 51.9894H38.7163V51.9894ZM45.3432 51.9894L41.6295 46.8316L44.7819 43.4539L46.489 51.9894H45.3432V51.9894ZM47.5197 51.9894L46.0279 44.5304L51.4977 51.9894H47.5197Z" fill="#ACBB15"/>
</svg>
