<svg width="32" height="31" viewBox="0 0 32 31" fill="none" xmlns="http://www.w3.org/2000/svg">
<path d="M30.1604 2.16701H11.9532V1.83986C11.9532 0.825202 11.1278 0 10.1131 0H4.43705C3.42239 0 2.59719 0.825202 2.59719 1.83986V2.16701H1.83986C0.825446 2.16701 0 2.99245 0 4.00687V26.8628C0 27.8772 0.825446 28.7026 1.83986 28.7026H2.59694V28.9619C2.59694 29.9765 3.42239 30.8017 4.43705 30.8017H10.1131C11.1275 30.8017 11.953 29.9765 11.953 28.9619V28.7026H30.1601C31.1748 28.7026 32 27.8772 32 26.8628V4.00687C32.0002 2.99245 31.1748 2.16701 30.1604 2.16701ZM1.83986 27.7651C1.3423 27.7651 0.937507 27.3603 0.937507 26.8628V4.00687C0.937507 3.5093 1.3423 3.10452 1.83986 3.10452H2.59694V27.7651H1.83986ZM31.0627 26.8628C31.0627 27.3603 30.6579 27.7651 30.1604 27.7651H11.9532V21.3879C11.9532 21.1291 11.7433 20.9191 11.4845 20.9191C11.2254 20.9191 11.0157 21.1291 11.0157 21.3879V28.9621C11.0157 29.4597 10.6107 29.8645 10.1131 29.8645H4.43705C3.93948 29.8645 3.53469 29.4597 3.53469 28.9621V1.83986C3.53469 1.3423 3.93948 0.937263 4.43705 0.937263H10.1131C10.6107 0.937263 11.0155 1.3423 11.0155 1.83986V19.6378C11.0155 19.8969 11.2254 20.1066 11.4842 20.1066C11.7433 20.1066 11.953 19.8969 11.953 19.6378V3.10452H30.1601C30.6579 3.10452 31.0627 3.5093 31.0627 4.00687V26.8628Z" fill="#ACBB15"/>
<path d="M28.019 4.87598H14.9593C14.2577 4.87598 13.6866 5.44678 13.6866 6.14845V9.34891C13.6866 10.0508 14.2577 10.6216 14.9593 10.6216H19.9098C20.1686 10.6216 20.3786 10.4117 20.3786 10.1529C20.3786 9.89384 20.1686 9.68412 19.9098 9.68412H14.9593C14.7745 9.68412 14.6241 9.53373 14.6241 9.34891V6.14845C14.6241 5.96363 14.7745 5.81348 14.9593 5.81348H28.019C28.2036 5.81348 28.354 5.96363 28.354 6.14845V9.34891C28.354 9.53373 28.2036 9.68412 28.019 9.68412H21.6598C21.401 9.68412 21.1911 9.89384 21.1911 10.1529C21.1911 10.4117 21.401 10.6216 21.6598 10.6216H28.019C28.7207 10.6216 29.2915 10.0506 29.2915 9.34891V6.14845C29.2915 5.44678 28.7207 4.87598 28.019 4.87598Z" fill="#ACBB15"/>
<path d="M15.3067 15.3616H16.7533C17.6464 15.3616 18.3732 14.635 18.3732 13.7417C18.3732 12.8484 17.6464 12.1216 16.7533 12.1216H15.3067C14.4134 12.1216 13.6866 12.8484 13.6866 13.7417C13.6866 14.635 14.4134 15.3616 15.3067 15.3616ZM15.3067 13.0591H16.7533C17.1295 13.0591 17.4357 13.3652 17.4357 13.7417C17.4357 14.1182 17.1295 14.4241 16.7533 14.4241H15.3067C14.9305 14.4241 14.6241 14.1182 14.6241 13.7417C14.6241 13.3652 14.9305 13.0591 15.3067 13.0591Z" fill="#ACBB15"/>
<path d="M20.7658 15.3616H22.2123C23.1057 15.3616 23.8322 14.635 23.8322 13.7417C23.8322 12.8484 23.1057 12.1216 22.2123 12.1216H20.7658C19.8727 12.1216 19.1459 12.8484 19.1459 13.7417C19.1459 14.635 19.8727 15.3616 20.7658 15.3616ZM20.7658 13.0591H22.2123C22.5886 13.0591 22.8947 13.3652 22.8947 13.7417C22.8947 14.1182 22.5886 14.4241 22.2123 14.4241H20.7658C20.3896 14.4241 20.0834 14.1182 20.0834 13.7417C20.0834 13.3652 20.3896 13.0591 20.7658 13.0591Z" fill="#ACBB15"/>
<path d="M27.6713 12.1216H26.225C25.3317 12.1216 24.6052 12.8484 24.6052 13.7417C24.6052 14.635 25.3317 15.3616 26.225 15.3616H27.6713C28.5647 15.3616 29.2915 14.635 29.2915 13.7417C29.2915 12.8484 28.5647 12.1216 27.6713 12.1216ZM27.6713 14.4241H26.225C25.8486 14.4241 25.5427 14.1182 25.5427 13.7417C25.5427 13.3652 25.8486 13.0591 26.225 13.0591H27.6713C28.0478 13.0591 28.354 13.3652 28.354 13.7417C28.354 14.1182 28.0478 14.4241 27.6713 14.4241Z" fill="#ACBB15"/>
<path d="M15.3067 19.3572H16.7533C17.6464 19.3572 18.3732 18.6304 18.3732 17.7371C18.3732 16.844 17.6464 16.1172 16.7533 16.1172H15.3067C14.4134 16.1172 13.6866 16.844 13.6866 17.7371C13.6866 18.6304 14.4134 19.3572 15.3067 19.3572ZM15.3067 17.0547H16.7533C17.1295 17.0547 17.4357 17.3608 17.4357 17.7371C17.4357 18.1135 17.1295 18.4197 16.7533 18.4197H15.3067C14.9305 18.4197 14.6241 18.1135 14.6241 17.7371C14.6241 17.3608 14.9305 17.0547 15.3067 17.0547Z" fill="#ACBB15"/>
<path d="M20.7658 19.3572H22.2123C23.1057 19.3572 23.8322 18.6304 23.8322 17.7371C23.8322 16.844 23.1057 16.1172 22.2123 16.1172H20.7658C19.8727 16.1172 19.1459 16.844 19.1459 17.7371C19.1459 18.6304 19.8727 19.3572 20.7658 19.3572ZM20.7658 17.0547H22.2123C22.5886 17.0547 22.8947 17.3608 22.8947 17.7371C22.8947 18.1135 22.5886 18.4197 22.2123 18.4197H20.7658C20.3896 18.4197 20.0834 18.1135 20.0834 17.7371C20.0834 17.3608 20.3896 17.0547 20.7658 17.0547Z" fill="#ACBB15"/>
<path d="M27.6713 16.1172H26.225C25.3317 16.1172 24.6052 16.844 24.6052 17.7371C24.6052 18.6304 25.3317 19.3572 26.225 19.3572H27.6713C28.5647 19.3572 29.2915 18.6304 29.2915 17.7371C29.2915 16.844 28.5647 16.1172 27.6713 16.1172ZM27.6713 18.4197H26.225C25.8486 18.4197 25.5427 18.1135 25.5427 17.7371C25.5427 17.3608 25.8486 17.0547 26.225 17.0547H27.6713C28.0478 17.0547 28.354 17.3608 28.354 17.7371C28.354 18.1135 28.0478 18.4197 27.6713 18.4197Z" fill="#ACBB15"/>
<path d="M15.3067 23.3528H16.7533C17.6464 23.3528 18.3732 22.6262 18.3732 21.7329C18.3732 20.8396 17.6464 20.1128 16.7533 20.1128H15.3067C14.4134 20.1128 13.6866 20.8396 13.6866 21.7329C13.6866 22.6262 14.4134 23.3528 15.3067 23.3528ZM15.3067 21.0503H16.7533C17.1295 21.0503 17.4357 21.3565 17.4357 21.7329C17.4357 22.1091 17.1295 22.4153 16.7533 22.4153H15.3067C14.9305 22.4153 14.6241 22.1091 14.6241 21.7329C14.6241 21.3565 14.9305 21.0503 15.3067 21.0503Z" fill="#ACBB15"/>
<path d="M20.7658 23.3528H22.2123C23.1057 23.3528 23.8322 22.6262 23.8322 21.7329C23.8322 20.8396 23.1057 20.1128 22.2123 20.1128H20.7658C19.8727 20.1128 19.1459 20.8396 19.1459 21.7329C19.1459 22.6262 19.8727 23.3528 20.7658 23.3528ZM20.7658 21.0503H22.2123C22.5886 21.0503 22.8947 21.3565 22.8947 21.7329C22.8947 22.1091 22.5886 22.4153 22.2123 22.4153H20.7658C20.3896 22.4153 20.0834 22.1091 20.0834 21.7329C20.0834 21.3565 20.3896 21.0503 20.7658 21.0503Z" fill="#ACBB15"/>
<path d="M27.6713 20.1128H26.225C25.3317 20.1128 24.6052 20.8396 24.6052 21.7329C24.6052 22.6262 25.3317 23.3528 26.225 23.3528H27.6713C28.5647 23.3528 29.2915 22.6262 29.2915 21.7329C29.2915 20.8396 28.5647 20.1128 27.6713 20.1128ZM27.6713 22.4153H26.225C25.8486 22.4153 25.5427 22.1091 25.5427 21.7329C25.5427 21.3565 25.8486 21.0503 26.225 21.0503H27.6713C28.0478 21.0503 28.354 21.3565 28.354 21.7329C28.354 22.1091 28.0478 22.4153 27.6713 22.4153Z" fill="#ACBB15"/>
<path d="M28.8227 25.0566H14.1554C13.8966 25.0566 13.6866 25.2664 13.6866 25.5254C13.6866 25.7842 13.8966 25.9941 14.1554 25.9941H28.8227C29.0815 25.9941 29.2915 25.7842 29.2915 25.5254C29.2915 25.2664 29.0815 25.0566 28.8227 25.0566Z" fill="#ACBB15"/>
</svg>
