<svg width="32" height="33" viewBox="0 0 32 33" fill="none" xmlns="http://www.w3.org/2000/svg">
<path d="M22.7175 0H9.28243C7.98745 0 6.93301 1.05444 6.93301 2.34941V29.6511C6.93301 30.9466 7.98745 32.0011 9.28243 32.0011H22.717C24.0125 32.0011 25.067 30.9466 25.067 29.6517V2.34941C25.067 1.05444 24.0125 0 22.7175 0ZM7.99972 4.26681H24.0002V24.5342H7.99972V4.26681ZM9.28243 1.0667H22.717C23.4248 1.0667 24.0002 1.64219 24.0002 2.34941V3.20011H7.99972V2.34941C7.99972 1.64219 8.5752 1.0667 9.28243 1.0667ZM22.7175 30.9344H9.28243C8.5752 30.9344 7.99972 30.3589 7.99972 29.6517V25.6009H24.0002V29.6517C24.0002 30.3589 23.4248 30.9344 22.7175 30.9344Z" fill="#ACBB15"/>
<path d="M16 26.1343C14.8234 26.1343 13.8666 27.0911 13.8666 28.2677C13.8666 29.4443 14.8234 30.4011 16 30.4011C17.1766 30.4011 18.1334 29.4443 18.1334 28.2677C18.1334 27.0911 17.1766 26.1343 16 26.1343ZM16 29.3344C15.4117 29.3344 14.9333 28.856 14.9333 28.2677C14.9333 27.6794 15.4117 27.201 16 27.201C16.5883 27.201 17.0667 27.6794 17.0667 28.2677C17.0667 28.856 16.5883 29.3344 16 29.3344Z" fill="#ACBB15"/>
<path d="M13.8666 2.6668H16C16.295 2.6668 16.5334 2.42839 16.5334 2.13345C16.5334 1.83851 16.295 1.6001 16 1.6001H13.8666C13.5717 1.6001 13.3333 1.83851 13.3333 2.13345C13.3333 2.42839 13.5717 2.6668 13.8666 2.6668Z" fill="#ACBB15"/>
<path d="M17.6001 2.6668H18.1334C18.4284 2.6668 18.6668 2.42839 18.6668 2.13345C18.6668 1.83851 18.4284 1.6001 18.1334 1.6001H17.6001C17.3051 1.6001 17.0667 1.83851 17.0667 2.13345C17.0667 2.42839 17.3051 2.6668 17.6001 2.6668Z" fill="#ACBB15"/>
</svg>
