<svg width="30" height="30" viewBox="0 0 30 30" fill="none" xmlns="http://www.w3.org/2000/svg">
<path d="M15.0037 0H14.9963C6.72563 0 0 6.7275 0 15C0 18.2812 1.0575 21.3225 2.85562 23.7919L0.98625 29.3644L6.75187 27.5213C9.12375 29.0925 11.9531 30 15.0037 30C23.2744 30 30 23.2706 30 15C30 6.72938 23.2744 0 15.0037 0Z" fill="#ACBB15"/>
<path d="M23.7319 21.1816C23.37 22.2035 21.9338 23.051 20.7881 23.2985C20.0044 23.4654 18.9806 23.5985 15.5344 22.1697C11.1263 20.3435 8.2875 15.8641 8.06625 15.5735C7.85438 15.2829 6.285 13.2016 6.285 11.0491C6.285 8.8966 7.37813 7.84848 7.81875 7.39848C8.18063 7.0291 8.77875 6.86035 9.3525 6.86035C9.53813 6.86035 9.705 6.86973 9.855 6.87723C10.2956 6.89598 10.5169 6.92223 10.8075 7.61785C11.1694 8.48973 12.0506 10.6422 12.1556 10.8635C12.2625 11.0847 12.3694 11.3847 12.2194 11.6754C12.0788 11.9754 11.955 12.1085 11.7338 12.3635C11.5125 12.6185 11.3025 12.8135 11.0813 13.0872C10.8788 13.3254 10.65 13.5804 10.905 14.021C11.16 14.4522 12.0413 15.8904 13.3388 17.0454C15.0131 18.536 16.3706 19.0122 16.8563 19.2147C17.2181 19.3647 17.6494 19.3291 17.9138 19.0479C18.2494 18.686 18.6638 18.086 19.0856 17.4954C19.3856 17.0716 19.7644 17.0191 20.1619 17.1691C20.5669 17.3097 22.71 18.3691 23.1506 18.5885C23.5913 18.8097 23.8819 18.9147 23.9888 19.1004C24.0938 19.286 24.0938 20.1579 23.7319 21.1816Z" fill="#FAFAFA"/>
</svg>
