<svg width="74" height="74" viewBox="0 0 74 74" fill="none" xmlns="http://www.w3.org/2000/svg">
<circle cx="37" cy="37" r="37" fill="#ACBB15" fill-opacity="0.1"/>
<path d="M52.3399 52.4754H50.8922V31.4546C50.8922 30.4762 50.0962 29.6802 49.1178 29.6802H45.8819C44.9035 29.6802 44.1075 30.4762 44.1075 31.4546V52.4754H40.4314V40.9786C40.4314 40.0002 39.6355 39.2042 38.657 39.2042H35.4211C34.4427 39.2042 33.6467 40.0003 33.6467 40.9786V52.4754H29.9707V46.5213C29.9707 45.5429 29.1746 44.7469 28.1963 44.7469H24.9603C23.9819 44.7469 23.1859 45.5429 23.1859 46.5213V52.4754H21.6601C21.2955 52.4754 21 52.7709 21 53.1355C21 53.5 21.2955 53.7955 21.6601 53.7955H52.3399C52.7045 53.7955 53 53.5 53 53.1355C53 52.7709 52.7045 52.4754 52.3399 52.4754ZM28.6504 52.4754H24.506V46.5213C24.506 46.2708 24.7097 46.067 24.9602 46.067H28.1961C28.4466 46.067 28.6504 46.2708 28.6504 46.5213V52.4754ZM39.1112 52.4754H34.9668V40.9786C34.9668 40.7281 35.1706 40.5244 35.4211 40.5244H38.657C38.9074 40.5244 39.1112 40.7281 39.1112 40.9786V52.4754ZM49.5721 52.4754H45.4276V31.4546C45.4276 31.2041 45.6314 31.0003 45.8819 31.0003H49.1178C49.3683 31.0003 49.5721 31.2041 49.5721 31.4546V52.4754Z" fill="#ACBB15"/>
<path d="M50.8906 20.6941C50.8999 20.514 50.8365 20.3308 50.6989 20.1933C50.5614 20.0557 50.3782 19.9923 50.1981 20.0016C50.1874 20.0011 50.177 20 50.1661 20H46.1727C45.8082 20 45.5126 20.2955 45.5126 20.6601C45.5126 21.0246 45.8082 21.3201 46.1727 21.3201H48.6385L42.1133 27.8454L39.6526 25.3847C39.5288 25.2609 39.3609 25.1914 39.1858 25.1914C39.0108 25.1914 38.8428 25.2609 38.7191 25.3847L26.8531 37.2508C26.5953 37.5085 26.5953 37.9265 26.8531 38.1843C26.982 38.3131 27.1509 38.3775 27.3198 38.3775C27.4887 38.3775 27.6577 38.3131 27.7866 38.1842L39.1858 26.7848L41.6466 29.2456C41.9043 29.5033 42.3223 29.5033 42.5801 29.2456L49.5721 22.2537V24.4854C49.5721 24.8499 49.8676 25.1454 50.2321 25.1454C50.5967 25.1454 50.8922 24.8499 50.8922 24.4854V20.7261C50.8922 20.7153 50.8911 20.7048 50.8906 20.6941Z" fill="#ACBB15"/>
<path d="M25.095 40.6806C25.4596 40.6806 25.7551 40.3851 25.7551 40.0205C25.7551 39.656 25.4596 39.3605 25.095 39.3605C24.7305 39.3605 24.4349 39.656 24.4349 40.0205C24.4349 40.3851 24.7305 40.6806 25.095 40.6806Z" fill="#ACBB15"/>
</svg>
