<svg width="74" height="74" viewBox="0 0 74 74" fill="none" xmlns="http://www.w3.org/2000/svg">
<circle cx="37" cy="37" r="37" fill="#ACBB15" fill-opacity="0.1"/>
<path d="M31.1672 33.4748C31.0819 33.3074 30.9149 33.1975 30.7278 33.1852L26.2412 32.8861C26.0087 32.8631 25.7937 33.0071 25.7089 33.2236L22.4745 41.4897C22.3876 41.7115 22.4585 41.9638 22.6484 42.1083C22.7433 42.1808 22.8575 42.2171 22.971 42.2171C23.0835 42.2171 23.1961 42.1819 23.291 42.1105L25.9756 40.0973L27.5387 40.4098C27.7937 40.4605 28.0485 40.3207 28.1413 40.077C28.9808 37.8783 29.9913 35.8337 31.1438 34.0007C31.2435 33.8417 31.2526 33.6417 31.1672 33.4748ZM27.3083 39.2759L25.9506 39.0045C25.8023 38.9752 25.6476 39.0104 25.5261 39.101L24.1507 40.1324L26.5596 33.976L29.7796 34.1904C28.8517 35.761 28.0229 37.4664 27.3083 39.2759Z" fill="#ACBB15"/>
<path d="M41.1136 47.759L40.8144 43.2719C40.8016 43.0841 40.6918 42.9173 40.5243 42.8319C40.3574 42.7466 40.1574 42.7551 39.9985 42.8553C38.165 44.0077 36.1209 45.0184 33.9222 45.8577C33.679 45.95 33.5382 46.2049 33.5895 46.4603L33.902 48.0234L31.8888 50.7075C31.7459 50.8984 31.7464 51.1608 31.8909 51.3507C31.9939 51.4861 32.1522 51.5613 32.3154 51.5613C32.3805 51.5613 32.4461 51.549 32.51 51.5255L40.7761 48.2911C40.9926 48.2064 41.1291 47.9909 41.1136 47.759ZM33.8667 49.8479L34.8981 48.4726C34.9888 48.3515 35.024 48.1969 34.9941 48.0481L34.7226 46.6908C36.5326 45.9762 38.2375 45.1475 39.8081 44.2196L40.023 47.439L33.8667 49.8479Z" fill="#ACBB15"/>
<path d="M36.4654 36.9999H32.8721C32.6786 36.9999 32.5004 37.1049 32.406 37.274L27.8959 45.3779C27.7786 45.5891 27.818 45.8536 27.9919 46.0211C28.0938 46.1192 28.2276 46.1704 28.362 46.1704C28.457 46.1704 28.5524 46.1453 28.6377 46.0931L36.7416 41.189C36.9011 41.0925 36.9987 40.9196 36.9987 40.733V37.5332C36.9988 37.2388 36.7598 36.9999 36.4654 36.9999ZM35.9322 40.4327L29.8052 44.1407L33.1852 38.067V38.0664H35.9322V40.4327Z" fill="#ACBB15"/>
<path d="M52.973 21.5136C52.9511 21.2539 52.7453 21.048 52.4856 21.0262C52.3085 21.0123 34.7467 19.7862 27.1452 39.6962C27.07 39.893 27.1174 40.1148 27.2662 40.2636L29.802 42.7994C29.9209 42.9183 30.0873 42.9727 30.2543 42.9503C30.4201 42.9263 30.5652 42.8261 30.6463 42.6794L33.1868 38.0665H35.9323V40.4391L31.2916 43.369C31.1545 43.4559 31.0644 43.5999 31.0462 43.761C31.0281 43.922 31.0846 44.0825 31.1993 44.1972L33.7351 46.733C33.837 46.8349 33.973 46.8892 34.1122 46.8892C34.1762 46.8892 34.2407 46.878 34.3025 46.854C54.2134 39.2519 52.9879 21.6902 52.973 21.5136ZM50.1753 30.9753C48.304 35.6053 44.0217 41.8998 34.2438 45.7336L32.4252 43.9151L36.7502 41.1846C36.9049 41.0865 36.9987 40.9164 36.9987 40.7334V37.5337C36.9987 37.2393 36.7598 37.0004 36.4654 37.0004H32.871C32.6764 37.0004 32.4977 37.1065 32.4039 37.2766L30.0536 41.544L28.2655 39.7553C34.9386 22.7316 49.1626 22.0351 51.9277 22.0741C51.9474 23.3178 51.8333 26.8727 50.1753 30.9753Z" fill="#ACBB15"/>
<path d="M30.1353 44.554C30.0195 44.4004 29.835 44.3257 29.6542 44.3449C29.6729 44.1636 29.5982 43.9796 29.4452 43.8639C28.641 43.2559 27.6032 43.0538 26.5969 43.3087C25.5287 43.5801 24.6551 44.3086 24.2008 45.3085L21.048 52.2451C20.9558 52.4477 20.9989 52.6861 21.1563 52.8429C21.2581 52.9452 21.3946 52.9991 21.5333 52.9991C21.608 52.9991 21.6832 52.9831 21.7541 52.9511L28.6907 49.7978C29.69 49.344 30.4185 48.4704 30.69 47.4023C30.9454 46.397 30.7433 45.3587 30.1353 44.554ZM29.6564 47.1399C29.4655 47.8924 28.9525 48.5072 28.2496 48.8272L22.6074 51.3918L25.172 45.7491C25.4914 45.0462 26.1068 44.5332 26.8593 44.3423C27.0572 44.2922 27.2561 44.2676 27.4523 44.2676C27.7845 44.2676 28.1093 44.3385 28.4053 44.4767L27.8976 45.3753C27.7797 45.5838 27.8155 45.8456 27.985 46.0147C28.1546 46.1848 28.4165 46.22 28.6245 46.1021L29.5231 45.5939C29.7417 46.0643 29.7913 46.6076 29.6564 47.1399Z" fill="#ACBB15"/>
<path d="M52.973 21.5142C52.9511 21.2545 52.7453 21.0486 52.4856 21.0267C52.2776 21.0102 47.3339 20.6358 41.52 23.314C41.3616 23.3865 41.2491 23.5326 41.2181 23.7044C41.1872 23.8761 41.2427 24.0521 41.3659 24.1752L49.8239 32.6333C49.9247 32.7341 50.0607 32.7895 50.201 32.7895C50.2324 32.7895 50.2639 32.7868 50.2953 32.7815C50.4671 32.7506 50.6126 32.6381 50.6857 32.4797C53.3644 26.6657 52.9901 21.7216 52.973 21.5142ZM50.0282 31.3283L42.6709 23.971C46.9271 22.1743 50.6542 22.0506 51.9283 22.072C51.9496 23.3471 51.8296 27.0625 50.0282 31.3283Z" fill="#ACBB15"/>
</svg>
