<svg width="74" height="74" viewBox="0 0 74 74" fill="none" xmlns="http://www.w3.org/2000/svg">
<circle cx="37" cy="37" r="37" fill="#ACBB15" fill-opacity="0.1"/>
<path d="M52.7132 22.0849C52.5354 21.977 52.3138 21.9723 52.1307 22.0689L42.3333 27.2558L32.5366 22.0689C32.5289 22.0647 32.52 22.0635 32.5123 22.06C32.4839 22.0463 32.4548 22.0363 32.4252 22.0274C32.4086 22.0226 32.3926 22.0173 32.376 22.0138C32.3434 22.0072 32.3102 22.0049 32.2764 22.0037C32.2616 22.0031 32.2468 22.0013 32.2314 22.0019C32.1994 22.0037 32.168 22.0096 32.1366 22.0167C32.1188 22.0203 32.101 22.0226 32.0839 22.028C32.0797 22.0292 32.0756 22.0292 32.072 22.0303L21.4053 25.5859C21.163 25.6665 21 25.8929 21 26.1483V51.6298C21 51.82 21.0913 51.9989 21.2465 52.1109C21.3484 52.1838 21.4699 52.2223 21.5926 52.2223C21.6554 52.2223 21.7188 52.2123 21.7799 52.1915L32.2367 48.7059L42.1076 52.7705C42.1159 52.774 42.1253 52.7729 42.1336 52.7758C42.1988 52.7989 42.2652 52.8149 42.3333 52.8149C42.3867 52.8149 42.4394 52.806 42.491 52.7918C42.5076 52.7871 42.523 52.7794 42.5396 52.7735C42.5633 52.7646 42.5881 52.758 42.6107 52.7462L52.6847 47.4129C52.8785 47.3103 53 47.1083 53 46.889V22.5927C53 22.3847 52.891 22.1921 52.7132 22.0849ZM22.1852 26.5755L31.6667 23.4152V39.4105C31.4119 39.4567 31.1606 39.5089 30.9176 39.5729C30.6012 39.657 30.4127 39.9812 30.4969 40.2976C30.5674 40.5631 30.8068 40.7385 31.0693 40.7385C31.1191 40.7385 31.1707 40.732 31.2216 40.7189C31.3639 40.681 31.5191 40.662 31.6667 40.6312V47.6475L22.1852 50.8072V26.5755ZM32.8519 40.4653C33.0421 40.4505 33.2264 40.4262 33.4213 40.4221C33.7484 40.4149 34.008 40.1441 34.0015 39.817C33.9944 39.494 33.7307 39.2369 33.4089 39.2369C33.4047 39.2369 33.4 39.2369 33.3959 39.2369C33.2121 39.241 33.0314 39.2511 32.8519 39.2635V23.577L41.7407 28.2828V40.8422C41.3176 40.8238 40.8874 40.774 40.4364 40.6869C40.1141 40.6235 39.8041 40.8345 39.7419 41.1557C39.6797 41.4769 39.8901 41.788 40.2113 41.8502C40.7363 41.9521 41.2459 42.0019 41.7413 42.0215V51.3376L32.8519 47.6772V40.4653ZM51.8148 46.5317L42.9259 51.2375V41.9575C43.1464 41.8573 43.2933 41.6321 43.2738 41.3767C43.2566 41.1551 43.1144 40.9773 42.9259 40.8902V28.2828L51.8148 23.577V46.5317Z" fill="#ACBB15"/>
<path d="M27.5185 26.7408C25.8847 26.7408 24.5555 28.07 24.5555 29.7038C24.5555 31.1349 25.5754 32.3314 26.9259 32.6069V33.852C26.9259 34.1797 27.1914 34.4445 27.5185 34.4445C27.8456 34.4445 28.1111 34.1797 28.1111 33.852V32.6069C29.4616 32.3314 30.4815 31.1349 30.4815 29.7038C30.4815 28.07 29.1523 26.7408 27.5185 26.7408ZM27.5185 31.4816C26.5384 31.4816 25.7407 30.684 25.7407 29.7038C25.7407 28.7237 26.5384 27.926 27.5185 27.926C28.4987 27.926 29.2963 28.7237 29.2963 29.7038C29.2963 30.684 28.4987 31.4816 27.5185 31.4816Z" fill="#ACBB15"/>
<path d="M47.7081 37.8063C47.7793 37.8342 47.8521 37.8466 47.9238 37.8466C48.1609 37.8466 48.3843 37.7038 48.4761 37.4697C48.7547 36.7592 48.9781 35.9569 49.1416 35.0851C49.2021 34.764 48.9899 34.4546 48.6681 34.3936C48.3446 34.3403 48.037 34.5459 47.9766 34.8677C47.8273 35.6665 47.624 36.3966 47.3727 37.0383C47.2536 37.3423 47.4036 37.6866 47.7081 37.8063Z" fill="#ACBB15"/>
<path d="M28.5881 40.5731C27.8729 41.0217 27.2281 41.5835 26.6711 42.2443C26.4601 42.4943 26.4921 42.8683 26.7422 43.0792C26.8536 43.1728 26.9893 43.2185 27.1238 43.2185C27.2927 43.2185 27.4598 43.1468 27.5772 43.0081C28.0548 42.4416 28.6065 41.9598 29.2175 41.5776C29.4948 41.4034 29.5784 41.0377 29.4047 40.7604C29.2311 40.4831 28.8649 40.3989 28.5881 40.5731Z" fill="#ACBB15"/>
<path d="M26.1123 44.0896C25.8148 43.9533 25.4628 44.0819 25.3259 44.3794C24.7179 45.6985 24.5674 46.7634 24.5609 46.8084C24.5164 47.1325 24.7428 47.4306 25.0669 47.4751C25.0942 47.4792 25.1221 47.481 25.1487 47.481C25.4397 47.481 25.6933 47.2665 25.7354 46.9708C25.7366 46.9613 25.8723 46.0244 26.4021 44.8765C26.5389 44.5785 26.4092 44.2271 26.1123 44.0896Z" fill="#ACBB15"/>
<path d="M44.9544 41.3951C45.0451 41.3951 45.1375 41.3743 45.2235 41.3305C45.9891 40.9388 46.664 40.3829 47.2288 39.6795C47.4338 39.4241 47.3929 39.0508 47.1375 38.8463C46.8827 38.6431 46.5094 38.6828 46.3043 38.9376C45.8445 39.5106 45.2993 39.9604 44.6836 40.2751C44.392 40.4244 44.2765 40.7811 44.4258 41.0727C44.5313 41.2771 44.7393 41.3951 44.9544 41.3951Z" fill="#ACBB15"/>
<path d="M38.2859 40.0339C38.0246 39.9242 37.8717 39.8484 37.8616 39.8431C37.8231 39.8235 37.7822 39.8075 37.7402 39.7968C37.0984 39.6321 36.4661 39.5017 35.8599 39.4093C35.5369 39.3583 35.2341 39.5817 35.1843 39.9053C35.1351 40.2288 35.3573 40.5317 35.6809 40.5808C36.2296 40.665 36.8027 40.7823 37.3858 40.9305C37.4652 40.9684 37.6169 41.0401 37.829 41.1284C37.9037 41.1598 37.9813 41.174 38.0572 41.174C38.2889 41.174 38.5093 41.0377 38.6042 40.8102C38.7304 40.5068 38.5882 40.1595 38.2859 40.0339Z" fill="#ACBB15"/>
<path d="M48.8062 33.2185C48.8193 33.2191 48.8317 33.2197 48.8447 33.2197C49.1547 33.2197 49.4154 32.9791 49.4356 32.6644C49.4723 32.0949 49.4907 31.4923 49.4907 30.8748C49.4907 30.6692 49.4889 30.4606 49.4847 30.2478C49.4788 29.9201 49.1944 29.6712 48.8815 29.6659C48.5544 29.6718 48.2936 29.942 48.2996 30.2692C48.3031 30.4748 48.3055 30.6769 48.3055 30.8748C48.3055 31.4674 48.2877 32.044 48.2527 32.5892C48.232 32.9157 48.4797 33.1972 48.8062 33.2185Z" fill="#ACBB15"/>
<path d="M25.9144 38.4191C26.0299 38.5346 26.1816 38.5927 26.3333 38.5927C26.485 38.5927 26.6367 38.5346 26.7523 38.4191L27.5185 37.6528L28.2847 38.4191C28.4003 38.5346 28.552 38.5927 28.7037 38.5927C28.8554 38.5927 29.0071 38.5346 29.1227 38.4191C29.3544 38.1874 29.3544 37.8128 29.1227 37.5811L28.3565 36.8149L29.1227 36.0487C29.3544 35.817 29.3544 35.4425 29.1227 35.2108C28.891 34.9791 28.5165 34.9791 28.2847 35.2108L27.5185 35.977L26.7523 35.2108C26.5206 34.9791 26.1461 34.9791 25.9144 35.2108C25.6827 35.4425 25.6827 35.817 25.9144 36.0487L26.6806 36.8149L25.9144 37.5811C25.6827 37.8122 25.6827 38.1874 25.9144 38.4191Z" fill="#ACBB15"/>
</svg>
