<svg width="120" height="35" viewBox="0 0 120 35" fill="none" xmlns="http://www.w3.org/2000/svg">
<path d="M48.96 24.9287H46.8261V11.7664H48.96V24.9287ZM57.8511 14.7578C58.9547 14.7578 59.8521 15.0769 60.5434 15.7151C61.2481 16.3532 61.6004 17.2706 61.6004 18.4672V24.9287H59.4665V19.1453C59.4665 17.3903 58.7552 16.5128 57.3326 16.5128C56.5881 16.5128 55.9499 16.772 55.4181 17.2906C54.8863 17.7958 54.6204 18.5802 54.6204 19.6438V24.9287H52.4865V14.9572H54.3811L54.4808 16.6125C54.8131 15.9876 55.2718 15.5223 55.8569 15.2165C56.4419 14.9107 57.1066 14.7578 57.8511 14.7578ZM73.3758 14.9572L69.4072 24.9287H67.0738L63.0852 14.9572H65.4385L68.2505 23.1937L71.1422 14.9572H73.3758ZM84.0509 19.6438C84.0509 20.0294 84.0247 20.395 83.9712 20.7407H76.672C76.7917 21.6182 77.1045 22.2896 77.6093 22.7549C78.1148 23.207 78.766 23.433 79.5638 23.433C80.2156 23.433 80.7541 23.32 81.1791 23.094C81.6179 22.8547 81.917 22.5156 82.0766 22.0769L83.8515 22.8148C83.1074 24.357 81.6777 25.1282 79.5638 25.1282C77.9951 25.1282 76.7655 24.6695 75.8743 23.7521C74.9968 22.8347 74.5581 21.565 74.5581 19.943C74.5581 18.3077 74.9837 17.038 75.8344 16.1339C76.6857 15.2165 77.8823 14.7578 79.4242 14.7578C80.8868 14.7578 82.0236 15.2032 82.8344 16.094C83.6458 16.9847 84.0509 18.1681 84.0509 19.6438ZM79.4242 16.453C78.6532 16.453 78.0281 16.679 77.5495 17.131C77.0846 17.583 76.7917 18.2412 76.672 19.1054H82.0566C81.9507 18.2678 81.6646 17.6163 81.1991 17.151C80.7472 16.6856 80.1558 16.453 79.4242 16.453ZM90.3342 25.1282C89.324 25.1282 88.4265 24.9553 87.6419 24.6096C86.871 24.2639 86.2858 23.7388 85.8869 23.0341L87.3228 21.7977C87.5752 22.3694 87.9678 22.7882 88.4995 23.0541C89.0311 23.32 89.6692 23.4529 90.414 23.4529C91.092 23.4529 91.6174 23.3466 91.9895 23.1339C92.3615 22.9078 92.5479 22.6153 92.5479 22.2564C92.5479 21.9373 92.3752 21.6847 92.0294 21.4985C91.6835 21.2991 91.0852 21.1129 90.2345 20.9401C88.7587 20.6609 87.7217 20.2887 87.1234 19.8233C86.5251 19.358 86.226 18.6998 86.226 17.849C86.226 17.3038 86.3924 16.7987 86.7245 16.3333C87.0567 15.8547 87.5353 15.4758 88.1604 15.1966C88.7986 14.9041 89.5496 14.7578 90.414 14.7578C91.5177 14.7578 92.4014 14.944 93.0664 15.3162C93.7314 15.6752 94.243 16.2403 94.602 17.0114L93.0863 18.1282C92.847 17.5432 92.508 17.1177 92.0692 16.8518C91.6436 16.5726 91.0989 16.433 90.4339 16.433C89.8356 16.433 89.3371 16.5593 88.9382 16.8119C88.5524 17.0512 88.3598 17.3304 88.3598 17.6495C88.3598 18.0085 88.5325 18.2944 88.8784 18.5071C89.2373 18.7198 89.8824 18.9126 90.8128 19.0854C92.2219 19.338 93.2191 19.697 93.8043 20.1624C94.3895 20.6277 94.6818 21.2792 94.6818 22.1168C94.6818 23.0075 94.296 23.7321 93.5251 24.2905C92.7542 24.849 91.6903 25.1282 90.3342 25.1282ZM103.742 24.2706C103.423 24.5365 103.03 24.7492 102.565 24.9088C102.113 25.055 101.621 25.1282 101.09 25.1282C100.172 25.1282 99.4344 24.9021 98.876 24.4501C98.3307 23.9847 98.0515 23.2668 98.0384 22.2963V16.6324H96.1438V14.9572H98.0384V12.6239L100.172 12.0256V14.9572H103.662V16.6324H100.172V21.9373C100.172 22.4159 100.298 22.7749 100.551 23.0142C100.817 23.2402 101.176 23.3532 101.628 23.3532C102.24 23.3532 102.778 23.1405 103.244 22.7151L103.742 24.2706ZM106.81 13.282C106.358 13.282 106.005 13.169 105.753 12.943C105.5 12.7037 105.374 12.3713 105.374 11.9458C105.374 11.5204 105.5 11.1947 105.753 10.9686C106.005 10.7426 106.358 10.6296 106.81 10.6296C107.261 10.6296 107.607 10.7426 107.847 10.9686C108.099 11.1947 108.226 11.5204 108.226 11.9458C108.226 12.3713 108.099 12.7037 107.847 12.943C107.607 13.169 107.261 13.282 106.81 13.282ZM107.867 24.9287H105.733V14.9572H107.867V24.9287ZM120 14.9572L116.031 24.9287H113.698L109.709 14.9572H112.063L114.875 23.1937L117.766 14.9572H120Z" fill="#222829"/>
<path d="M17.4501 34.9002C27.0875 34.9002 34.9002 27.0875 34.9002 17.4501C34.9002 7.81268 27.0875 0 17.4501 0C7.81268 0 0 7.81268 0 17.4501C0 27.0875 7.81268 34.9002 17.4501 34.9002Z" fill="url(#paint0_linear)"/>
<path d="M13.7764 13.7764L20.2054 7.34741V26.6344H13.7764V13.7764Z" fill="white"/>
<defs>
<linearGradient id="paint0_linear" x1="17.4501" y1="0" x2="17.4501" y2="34.9002" gradientUnits="userSpaceOnUse">
<stop stop-color="#56E854"/>
<stop offset="1" stop-color="#009444"/>
</linearGradient>
</defs>
</svg>
